<svg width="44" height="50" viewBox="0 0 44 50" fill="none" xmlns="http://www.w3.org/2000/svg">
<path opacity="0.1" fill-rule="evenodd" clip-rule="evenodd" d="M22.0372 48.75C33.4973 48.75 42.7876 38.1168 42.7876 25C42.7876 11.8832 33.4973 1.25 22.0372 1.25C10.5771 1.25 1.28687 11.8832 1.28687 25C1.28687 38.1168 10.5771 48.75 22.0372 48.75Z" stroke="#FF7B1B" stroke-width="2.03571"/>
<path d="M23.9271 18.9212H25.8342C26.0097 18.9212 26.1521 18.7676 26.1521 18.5784V16.5215C26.1521 16.3323 26.0097 16.1787 25.8342 16.1787H23.9271C21.9997 16.1787 20.4308 17.8701 20.4308 19.9496V22.3493H18.2058C18.0303 22.3493 17.8879 22.5029 17.8879 22.6921V24.749C17.8879 24.9382 18.0303 25.0918 18.2058 25.0918H20.4308V32.2908C20.4308 32.4801 20.5731 32.6337 20.7486 32.6337H22.6557C22.8312 32.6337 22.9736 32.4801 22.9736 32.2908V25.0918H25.1985C25.3352 25.0918 25.4566 24.9972 25.5005 24.8573L26.1362 22.8005C26.1686 22.6962 26.1521 22.5811 26.0923 22.4912C26.0319 22.4021 25.9366 22.3493 25.8342 22.3493H22.9736V19.9496C22.9736 19.3826 23.4014 18.9212 23.9271 18.9212Z" fill="#FF7B1B"/>
</svg>
