<svg width="45" height="50" viewBox="0 0 45 50" fill="none" xmlns="http://www.w3.org/2000/svg">
<path opacity="0.1" fill-rule="evenodd" clip-rule="evenodd" d="M22.7503 48.75C34.2104 48.75 43.5007 38.1168 43.5007 25C43.5007 11.8832 34.2104 1.25 22.7503 1.25C11.2902 1.25 2 11.8832 2 25C2 38.1168 11.2902 48.75 22.7503 48.75Z" stroke="#FF7B1B" stroke-width="2.03571"/>
<path d="M17.9887 20.2055C18.9608 20.2055 19.7488 19.3041 19.7488 18.1921C19.7488 17.0801 18.9608 16.1787 17.9887 16.1787C17.0166 16.1787 16.2285 17.0801 16.2285 18.1921C16.2285 19.3041 17.0166 20.2055 17.9887 20.2055Z" fill="#FF7B1B"/>
<path d="M19.4555 21.5503H16.5219C16.3599 21.5503 16.2285 21.7006 16.2285 21.8859V31.9528C16.2285 32.138 16.3599 32.2884 16.5219 32.2884H19.4555C19.6174 32.2884 19.7488 32.138 19.7488 31.9528V21.8859C19.7488 21.7006 19.6174 21.5503 19.4555 21.5503Z" fill="#FF7B1B"/>
<path d="M28.191 20.9915C26.938 20.5002 25.3706 20.9317 24.4307 21.7056C24.3984 21.5613 24.2835 21.4539 24.1469 21.4539H21.2151C21.0532 21.4539 20.9219 21.6042 20.9219 21.7894V31.8564C20.9219 32.0416 21.0532 32.192 21.2151 32.192H24.1469C24.3087 32.192 24.4401 32.0416 24.4401 31.8564V24.6216C24.9138 24.1545 25.5243 24.0055 26.0238 24.2485C26.5082 24.4827 26.7855 25.0545 26.7855 25.8162V31.8564C26.7855 32.0416 26.9169 32.192 27.0787 32.192H30.0105C30.1724 32.192 30.3037 32.0416 30.3037 31.8564V25.1404C30.2703 22.3827 29.1369 21.3619 28.191 20.9915Z" fill="#FF7B1B"/>
</svg>
