<svg width="45" height="50" viewBox="0 0 45 50" fill="none" xmlns="http://www.w3.org/2000/svg">
<path opacity="0.1" fill-rule="evenodd" clip-rule="evenodd" d="M22.3253 48.75C33.7854 48.75 43.0756 38.1168 43.0756 25C43.0756 11.8832 33.7854 1.25 22.3253 1.25C10.8652 1.25 1.57495 11.8832 1.57495 25C1.57495 38.1168 10.8652 48.75 22.3253 48.75Z" stroke="#FF7B1B" stroke-width="2.03571"/>
<path d="M29.1066 20.6094C29.0103 20.4849 28.8551 20.4535 28.7277 20.5304C28.6485 20.5781 28.4996 20.6407 28.3229 20.7027C28.5459 20.3536 28.7252 19.9627 28.8044 19.6114C28.8386 19.46 28.7885 19.3004 28.6796 19.2101C28.5706 19.1206 28.4255 19.1206 28.3165 19.2101C28.1448 19.3511 27.3161 19.7748 26.7921 19.912C25.6079 18.691 24.2299 18.5642 22.7974 19.5488C21.6328 20.3491 21.3794 21.9766 21.4288 22.9687C18.7633 22.6666 17.1065 21.0092 16.1738 19.6375C16.1086 19.5413 16.0034 19.4906 15.9046 19.498C15.8007 19.507 15.7069 19.5749 15.6537 19.68C15.2127 20.5565 15.0904 21.5254 15.3014 22.4824C15.4167 23.0045 15.6182 23.4647 15.852 23.8377C15.7398 23.7728 15.6315 23.6915 15.5295 23.5945C15.4357 23.5035 15.3046 23.4863 15.1937 23.5468C15.0834 23.6087 15.0131 23.7399 15.0131 23.8839C15.0131 25.5271 15.8862 26.6236 16.7016 27.1964C16.5698 27.1778 16.4324 27.1435 16.2936 27.0935C16.1745 27.051 16.0452 27.0935 15.9629 27.2039C15.8805 27.3135 15.8609 27.4702 15.9122 27.6037C16.3703 28.7964 17.2383 29.6169 18.3122 29.9145C17.3745 30.5627 16.1194 30.8804 14.97 30.7245C14.8211 30.6999 14.6792 30.811 14.6323 30.9796C14.5854 31.1482 14.6469 31.3332 14.7781 31.4197C16.5217 32.5721 18.098 32.9838 19.4603 32.9838C21.4427 32.9838 22.9729 32.1126 23.9042 31.3839C26.4151 29.4222 27.9801 25.9001 27.7621 22.7486C28.1645 22.3988 28.7664 21.7529 29.1396 21.0584C29.2169 20.9182 29.2029 20.7332 29.1066 20.6094Z" fill="#FF7B1B"/>
</svg>
